# xmcd
#
# Track frame offsets:
#	150
#	7145
#	24494
#	40202
#	56657
#	71499
#	94361
#	113444
#	128432
#	147215
#	165519
#	185419
#	204440
#
# Disc length: 2887 seconds
#
# Revision: 0
# Processed by: cddbd v1.5.2PL0 Copyright (c) Steve Scherf et al.
# Submitted via: dBpowerAMP V4.0
#
DISCID=aa0b450d
DTITLE=vallin - Bendito entre las mujeres
DYEAR=2009
DGENRE=Blues
TTITLE0=HISTORIA DE UNA NENA
TTITLE1=ESA SOY YO
TTITLE2=¿POR QUE NO TE VAS?
TTITLE3=PALABRAS ROTAS
TTITLE4=QUE PASA TIO
TTITLE5=MILAGRO CATASTROFICO
TTITLE6=FRAGILIDAD
TTITLE7=TAN DENTRO DE MI
TTITLE8=NO MAS TARICIONES
TTITLE9=SOLO TU
TTITLE10=GOTAS DE MI
TTITLE11=¿POR QUE ET VAS?
TTITLE12=HISTORIAS DE UNA NENA 2
EXTD=execelente album
EXTT0=
EXTT1=
EXTT2=
EXTT3=
EXTT4=
EXTT5=
EXTT6=
EXTT7=
EXTT8=
EXTT9=
EXTT10=
EXTT11=
EXTT12=
PLAYORDER=
